<svg id="SvgjsSvg1024" width="256" height="256" xmlns="http://www.w3.org/2000/svg" version="1.1" xmlns:xlink="http://www.w3.org/1999/xlink" xmlns:svgjs="http://svgjs.com/svgjs"><defs id="SvgjsDefs1025"></defs><g id="SvgjsG1026"><svg xmlns="http://www.w3.org/2000/svg" enable-background="new 0 0 48 48" viewBox="0 0 48 48" width="256" height="256"><path fill="#e8ec54" d="M47.5,24C47.5,11,37,0.5,24,0.5S0.5,11,0.5,24C0.5,37,11,47.5,24,47.5S47.5,37,47.5,24z M17.7,37.1
	c-0.6-0.6-0.9-1.4-0.9-2.1s0.3-1.5,0.9-2.1l8.8-8.8l-8.8-8.8c-1.2-1.2-1.2-3.1,0-4.2c1.2-1.2,3.1-1.2,4.2,0l10.9,10.9
	c1.1,1.1,1.1,3.1,0,4.2L22,37.1C20.8,38.2,18.9,38.2,17.7,37.1z" class="color2d4356 svgShape"></path></svg></g></svg>